<svg xmlns="http://www.w3.org/2000/svg" style="position:absolute;width:0;height:0;overflow:hidden" aria-hidden="true">
  <symbol id="logo-magna" viewBox="8.218 10.913 562.23 114.174"><g fill="var(--magna-mark,#161616)"><g fill="var(--magna-word,#9a9a9a)"><path d="m149.625 44.427h29.692l10.952 41.698h.74c.526-3.473 1.054-7.16 2.002-10.523l8.945-31.175h29.385l13.053 79.397h-27.902l-3.901-43.488h-.522c-.525 2.631-1.054 5.367-1.896 7.895l-11.477 35.594h-16.847l-10.319-33.595c-.843-3.369-1.583-6.527-1.795-9.895h-.948c-.207 3.16-.417 6.422-.734 9.576l-3.373 33.912h-27.902z"/><path d="m287.099 95.078-3.368-14.006c-.842-3.373-1.371-6.846-1.9-10.215h-1.048l-5.268 24.221zm-19.062 28.746h-30.534l27.585-79.397h31.91l28.327 79.397h-30.541l-2.627-9.902h-21.803zm135.726-46.754c-.217 12.953-.217 23.797-9.587 33.902-8.426 9.166-21.372 14.115-33.693 14.115-24.216 0-43.8-14.953-43.8-40.436 0-25.901 19.054-41.488 44.012-41.488 13.794 0 32.751 6.846 38.958 20.429l-26.956 9.901c-2.21-4.002-6.315-6.109-10.951-6.109-10.313 0-16.005 8.845-16.005 18.425 0 8.736 5.476 16.953 14.846 16.953 4.532 0 10.322-2.107 11.688-6.949h-13.054v-18.743zm2.155-32.643h27.698l25.9 44.017h.839c-1.154-6.635-2.42-13.48-2.42-20.218v-23.799h27.585v79.397h-27.585l-25.375-41.697h-.841c.944 5.471 1.788 10.633 1.788 15.902v25.795h-27.59v-79.397z"/><path d="m532.228 95.078-3.373-14.006c-.841-3.373-1.367-6.846-1.897-10.215h-1.051l-5.265 24.221zm-19.06 28.746h-30.536l27.584-79.397h31.907l28.325 79.397h-30.536l-2.632-9.902h-21.795z"/></g><path d="m92.769 123.902 29.917.004-28.811-79.264-21.901-.004-4.025 11.031z"/><path d="m72.479 10.913c-8.027 0-14.533 6.504-14.533 14.536 0 8.022 6.506 14.531 14.533 14.531s14.531-6.509 14.531-14.532c0-8.031-6.504-14.535-14.531-14.535" fill="var(--magna-dot,#e22e2f)"/><path d="m8.218 123.902 44.598-.004-22.305-61.226zm49.657 0 29.917.004-28.818-79.264-21.898-.004-4.02 11.031z"/></g></symbol>
  <symbol id="logo-asphericon" viewBox="0 0 3811 2055"><g fill="var(--logo-ink,currentColor)"><path d="M1903 496c94 0 172 77 172 173 0 95-78 173-172 173-96 0-174-78-174-173 0-96 78-173 174-173z"></path><path d="M3796 769c-36-51-74-35-74-35C3306 947 2666 0 1905 0c-1 0-2 0-3 0 0 0-1 0-2 0C1139 0 499 947 83 734c0 0-38-16-74 35 0 0-27 42 15 64 505 264 1115-682 1876-682 1 0 2-1 2-1 1 0 2 1 3 1 761 0 1371 946 1876 682 42-22 15-64 15-64z"></path><path d="M282 1536c26 0 26 3 26 9 0 16-1 60-1 103v96c0 63 3 107 5 145 0 5-4 8-25 8h-3c-21 0-25-2-26-8l-4-32c-21 27-60 47-105 47-100 0-146-83-146-181 0-117 67-193 157-193 41 0 73 19 92 43l4-28c0-9 4-9 24-9h2zm-36 95c-16-24-47-46-79-46-63 0-100 52-100 134 0 65 23 130 93 130 23 0 50-7 68-26 15-16 18-35 18-95v-97z"></path><path d="M678 1598c-12 18-15 18-20 14-25-18-49-30-79-30-28 0-69 11-69 49 0 36 39 46 71 54 56 15 116 35 116 106 0 73-62 113-137 113-43 0-86-16-112-34-7-5-4-9 3-25l3-7c9-20 12-20 21-15 26 15 59 27 89 27 31 0 75-15 75-55 0-37-44-49-79-57-36-8-63-17-81-34-17-16-27-40-27-67 0-67 58-108 126-108 43 0 83 16 108 38 5 5 7 11-3 25l-5 6z"></path><path d="M864 1536c24 0 28 2 28 9l1 30c21-26 61-45 98-45 90 0 146 67 146 179 0 103-54 194-167 194-27 0-57-9-74-21v165c0 6-7 8-30 8h-4c-22 0-28-2-28-8V1656c0-47-1-94-1-111 0-6 2-9 28-9h3zm32 286c17 14 43 26 71 26 64 0 106-54 106-137 0-82-39-126-92-126-27 0-59 12-72 30-13 16-13 33-13 101v106z"></path><path d="M1306 1378c27 0 29 3 29 8v187c24-26 69-44 110-44 37 0 71 13 93 37 25 25 35 60 35 116v207c0 5-1 8-28 8h-4c-27 0-29-3-29-8V1710c0-55-2-81-19-100-13-16-35-22-65-22-25 0-56 8-72 24-8 8-16 19-19 49-1 19-2 54-2 93v135c0 5 0 8-28 8h-4c-27 0-29-3-29-8V1386c0-5 1-8 28-8h4z"></path><path d="M1770 1738c2 38 13 67 34 85 18 17 45 25 81 25 28 0 57-7 90-22 6-3 10-4 17 13l3 8c8 18 7 22 2 25-35 21-78 32-124 32-111 0-167-69-167-179 0-115 62-196 164-196 60 0 102 31 124 76 16 31 23 69 23 109 0 20-1 24-7 24H1770zm184-50c0-51-26-103-84-103-50 0-89 33-98 103h182z"></path><path d="M2184 1536c24 0 28 2 28 9l1 70c26-57 64-83 100-83 6 0 11 1 14 2 6 1 7 3 7 19v10c0 20-1 25-8 25-48 0-73 30-92 62-10 16-16 35-17 59-1 19-2 62-2 101v79c0 5-1 8-28 8h-4c-27 0-29-3-29-8V1656c0-47-2-94-2-111 0-6 2-9 28-9h4z"></path><path d="M2483 1383c24 0 43 19 43 43s-19 43-43 43-43-19-43-43 19-43 43-43z"></path><path d="M2923 1849c6 17 4 21 0 24-35 19-74 31-117 31-104 0-156-80-156-182 0-125 73-193 168-193 43 0 81 16 110 36 6 4 6 9-4 31-10 24-17 22-22 18-25-17-53-29-81-29-63 0-107 48-107 133 0 66 27 130 101 130 28 0 60-8 86-21 6-3 13-1 18 13l4 9z"></path><path d="M3310 1564c34 30 54 80 54 144 0 130-68 196-170 196-42 0-77-11-103-34-34-30-54-81-54-145 0-129 68-195 170-195 42 0 77 10 103 34zm-209 156c0 62 21 129 95 129 55 0 104-38 104-136 0-61-21-129-95-129-55 0-104 38-104 136z"></path><path d="M3532 1536c25 0 28 2 28 9l1 30h1c24-28 69-45 111-45 38 0 71 12 94 36 24 25 35 61 35 116v207c0 5-1 8-28 8h-5c-27 0-29-3-29-8V1711c0-56-2-82-18-101-13-16-35-22-65-22-26 0-56 8-73 24-8 8-15 19-18 49-1 19-2 54-2 93v135c0 5-1 8-28 8h-4c-28 0-30-3-30-8V1656c0-47-1-94-1-111 0-6 2-9 28-9h3z"></path><path d="M3785 1164H22c-27 0-27-62 0-62H3785c26 0 26 62 0 62z"></path><path d="M2495 1536h62v377a31 31 0 0 1 -62 0z"/></g></symbol>
<symbol id="logo-preciosa" viewBox="0 0 192.756 145">
  <g fill-rule="evenodd" clip-rule="evenodd" fill="var(--logo-ink,currentColor)">
    <path d="M163.662 116.046h4.547l10.467 28.542h-4.039l-2.572-7.329h-12.707l-2.572 7.329h-3.777l10.653-28.542zm2.199 3.496l-5.297 14.521h10.428l-5.131-14.521zm-15.623-2.679l-.471 3.396c-.828-.432-1.301-.723-2.172-.937a11.549 11.549 0 0 0-2.732-.321c-1.617 0-2.879.322-3.791.967-.904.638-1.148 1.521-1.148 2.646 0 .885.096 1.687.713 2.414.609.72 1.936 1.682 3.963 2.872 2.641 1.552 4.465 2.61 5.471 3.886 1.002 1.269 1.854 3.144 1.854 4.775 0 2.428-.83 4.414-2.488 5.966-1.664 1.554-4.143 2.26-6.754 2.26-1.264 0-2.469-.109-3.623-.322-1.154-.212-1.529-.316-2.529-.728l.09-3.77c1.104.617 1.746.789 2.773 1.083 1.031.296 2.033.445 3.008.445 1.564 0 2.826-.378 3.777-1.124.955-.749 1.371-1.889 1.5-3.116.352-3.319-1.73-4.147-5.477-6.421-.627-.38-1.1-.678-1.432-.884-1.426-.891-2.764-1.681-3.578-2.955-.814-1.275-1.219-2.578-1.219-3.915 0-2.229.797-3.99 2.381-5.293 1.584-1.31 3.738-1.961 6.471-1.961 1.014 0 2.002.079 2.951.24.954.162 1.583.475 2.462.797zm-30.281-1.359c3.93 0 7.035 1.323 9.316 3.97 2.289 2.64 3.43 6.253 3.43 10.833 0 4.593-1.141 8.214-3.416 10.853-2.281 2.646-5.395 3.971-9.33 3.971-3.93 0-7.037-1.324-9.332-3.971-2.289-2.639-3.438-6.26-3.438-10.853 0-4.58 1.148-8.193 3.438-10.833 2.295-2.647 5.402-3.97 9.332-3.97zm0 3.175c-2.627 0-4.727 1.056-6.307 3.16-1.58 2.111-2.371 4.923-2.371 8.426 0 3.524.791 6.336 2.371 8.427 1.58 2.098 3.68 3.147 6.307 3.147 2.619 0 4.719-1.05 6.305-3.147 1.588-2.091 2.385-4.902 2.385-8.427 0-3.503-.797-6.314-2.391-8.426-1.594-2.105-3.694-3.16-6.299-3.16zm-22.152-2.633h3.74v28.542h-3.74v-28.542zm-4.688 1.021l-.147 3.455a17.026 17.026 0 0 0-3.021-1.021 13.264 13.264 0 0 0-2.996-.343c-3.207 0-5.753 1.001-7.639 3.003s-2.828 4.703-2.828 8.104c0 3.442.936 6.15 2.815 8.118s4.444 2.955 7.69 2.955c1.026 0 2.027-.103 3.008-.309a16.225 16.225 0 0 0 2.893-.919l.109 3.572c-.923.322-1.912.569-2.963.733a20.805 20.805 0 0 1-3.348.254c-4.375 0-7.818-1.269-10.346-3.806-2.521-2.536-3.784-5.998-3.784-10.38 0-4.429 1.29-7.96 3.861-10.586s6.035-3.936 10.384-3.936c1.161 0 2.277.089 3.335.274 1.059.181 2.047.455 2.977.832zm-36.681-1.021h12.629v3.071h-8.89v9.057h8.215v3.216h-8.215v9.907h8.89v3.291H56.436v-28.542zm-21.967 0h5.311c3.046 0 5.336.609 6.869 1.837s2.633 3.051 2.633 5.472c0 1.81-.206 3.605-1.083 4.846-.904 1.278-2.434 2.463-4.057 2.821 1.55.58 2.476 1.65 3.41 3.114l6.665 10.452h-4.009l-6.132-9.547c-.698-1.087-1.628-1.853-2.33-2.349-.703-.497-1.7-.74-2.989-.74h-.587v12.636h-3.701v-28.542zm3.7 3.071v9.722h1.318c1.867 0 3.329-.438 4.387-1.316 1.058-.877 1.59-2.084 1.59-3.627 0-1.646-.492-2.854-1.475-3.627-.979-.77-2.521-1.151-4.611-1.151h-1.209v-.001zm-24.089-3.071h6.651c3.181 0 5.567.706 7.158 2.111s2.386 3.511 2.386 6.328c0 2.674-.847 4.752-2.546 6.232-1.693 1.48-4.092 2.222-7.184 2.222h-2.726v11.648H14.08v-28.541zm3.739 3.112v10.668h2.424c1.982 0 3.496-.466 4.554-1.405s1.59-2.283 1.59-4.038c0-1.646-.487-2.928-1.468-3.847-.975-.919-2.361-1.378-4.15-1.378h-2.95zm78.557-81.63c22.69 0 41.196 14.937 41.196 33.251 0 18.313-18.506 33.25-41.196 33.25s-41.195-14.937-41.195-33.25c0-18.314 18.506-33.251 41.195-33.251zm0 .498l3.899 24.979 23.369-15.924-17.854 20.374 31.434 3.146-31.434 3.146 17.518 21.835-23.033-17.386-3.899 25.362-3.899-25.362-22.633 17.326 17.119-21.776L55.529 70.6l31.434-3.146-17.317-20.803 22.831 16.354 3.899-24.979z"/>
    <path d="M68.562 8.504l2.086 13.364 12.502-8.519-9.552 10.899 16.816 1.683-16.816 1.684 9.372 11.682-12.322-9.302-2.086 13.568-2.086-13.568-12.108 9.27 9.159-11.65-16.817-1.684 16.817-1.683-9.264-11.13 12.214 8.75 2.085-13.364z"/>
  </g>
</symbol>
  <symbol id="logo-lukov" viewBox="0 0 599.157210 106.789103"><g transform="translate(-10.842790,115.818289) scale(0.100000,-0.100000)"
fill="var(--logo-ink,currentColor)" stroke="none">
<path d="M258 1152 l-148 -3 -1 -27 c-2 -61 3 -1007 6 -1010 1 -2 72 -4 156
-5 l154 -2 0 524 0 524 -10 1 c-5 1 -76 0 -157 -2z"/>
<path d="M2243 1153 l-143 -4 0 -244 0 -245 11 0 c10 0 118 70 230 149 20 14
46 33 58 41 l21 14 0 142 0 142 -16 6 c-9 3 -16 5 -17 4 -1 -1 -66 -4 -144 -5z"/>
<path d="M3845 879 c-194 -28 -373 -135 -431 -256 l-26 -57 4 -85 5 -86 22
-46 c12 -25 43 -67 69 -93 l47 -47 80 -39 c44 -22 94 -42 110 -45 217 -40 326
-44 501 -20 l109 15 90 44 c105 53 152 89 193 151 l30 46 12 68 11 69 -10 57
-11 56 -32 49 c-62 91 -150 147 -305 194 -112 34 -325 46 -468 25z m319 -179
c31 -10 70 -29 87 -40 33 -24 73 -96 83 -150 l6 -36 -16 -54 -16 -54 -35 -32
c-19 -18 -49 -38 -67 -44 -17 -6 -39 -16 -48 -21 -10 -5 -64 -9 -120 -9 l-103
0 -45 16 c-118 40 -181 133 -166 242 11 85 72 150 169 183 l52 18 81 1 81 0
57 -20z"/>
<path d="M3085 872 c-57 -3 -104 -24 -190 -87 -33 -24 -136 -95 -230 -159 -93
-63 -183 -126 -200 -139 l-29 -25 34 -28 c18 -16 61 -49 94 -74 34 -25 118
-90 189 -144 70 -53 139 -101 155 -105 21 -6 255 -7 391 -2 l25 1 -83 61 c-46
33 -124 88 -174 123 -168 115 -232 160 -259 182 l-27 22 12 10 c7 5 84 58 172
117 365 246 363 244 333 245 -88 4 -172 4 -213 2z"/>
<path d="M5803 873 c-12 -2 -33 -17 -45 -33 -44 -55 -88 -117 -88 -123 0 -4
-29 -52 -65 -106 -36 -55 -65 -103 -65 -107 0 -4 -9 -18 -21 -30 -11 -12 -31
-41 -43 -65 -13 -24 -31 -48 -40 -54 l-16 -10 -14 15 c-14 14 -68 101 -242
389 -35 58 -67 108 -72 113 -5 5 -86 7 -180 6 l-172 -3 20 -37 c18 -34 255
-397 405 -619 l64 -97 117 -7 c130 -8 232 -1 251 18 11 11 209 296 290 417 20
30 41 59 45 65 36 41 168 239 168 250 l0 15 -117 0 c-65 0 -127 2 -138 4 -11
2 -30 2 -42 -1z"/>
<path d="M700 602 l0 -269 15 -44 c21 -59 65 -102 137 -134 l60 -27 96 -13 97
-13 180 4 c99 2 191 6 205 8 14 3 42 7 63 10 56 8 150 53 185 89 17 18 39 52
49 77 l17 45 2 255 c1 140 -1 261 -3 268 l-5 12 -153 0 -153 0 -6 -16 c-3 -9
-6 -123 -6 -254 0 -131 -4 -250 -10 -264 -5 -14 -23 -32 -39 -41 l-30 -15
-153 0 -154 0 -34 29 -35 29 -5 263 -5 264 -157 3 -158 3 0 -269z"/>
<path d="M2400 692 c-17 -8 -142 -92 -150 -101 -3 -4 -23 -18 -45 -32 -22 -14
-55 -40 -72 -57 l-33 -30 0 -36 c0 -20 3 -36 8 -36 4 1 43 25 87 56 44 30 112
76 152 102 l72 47 1 48 c0 26 -1 47 -2 46 -2 0 -10 -3 -18 -7z"/>
<path d="M2393 437 c-12 -7 -68 -43 -125 -82 -56 -38 -106 -72 -112 -74 -6 -2
-19 -12 -30 -23 l-20 -18 -4 -65 -4 -65 13 0 c8 -1 78 -2 157 -3 l143 -2 5 20
c3 11 3 88 2 172 l-3 152 -22 -12z"/>
</g></symbol>
</svg>
